<svg xmlns="http://www.w3.org/2000/svg" xmlns:xlink="http://www.w3.org/1999/xlink" width="935" height="371" viewBox="0 0 935 371">
    <defs>
        <path id="a" d="M0 0h935v226L0 371z"/>
    </defs>
    <g fill="none" fill-rule="evenodd">
        <mask id="b" fill="#fff">
            <use xlink:href="#a"/>
        </mask>
        <use fill="#317BDA" xlink:href="#a"/>
        <g fill-rule="nonzero" mask="url(#b)" opacity=".4">
            <path fill="#FFF" d="M815.616 27.341c.077.309.045.638-.07.899-.128.305-.436.518-.77.628l-1.74.434-.506 1.416c.322-.064.717-.014.972.194.302.22.497.462.573.77l.037.057s.036.058.025.103a1.02 1.02 0 0 1-.88 1.276l-1.74.434-1.01 3.026c-.034.137-.164.249-.33.304l-2.62.89a.384.384 0 0 1-.215.042c-.3-.026-.543-.28-.523-.564l.314-9.854a.532.532 0 0 1 .58-.482c.3.026.542.28.522.564l-.192 9.161 1.62-.56 1.01-3.027a.486.486 0 0 1 .341-.35l2.015-.51c.048.013.06-.033.119-.066l.011-.045-.036-.058c-.074-.115-.195-.241-.255-.208l-.978.239c-.118.066-.262.03-.358.006-.277-.117-.413-.392-.297-.652l.956-2.606c.034-.137.164-.249.33-.304l2.027-.555c.011-.046.06-.034.07-.079.012-.045.035-.136-.002-.194l-.037-.057c-.014-.148-.087-.263-.231-.299l-.978.239a.578.578 0 0 1-.675-.362c-.088-.263.087-.556.361-.633l.978-.238a1.127 1.127 0 0 1 1.057.264c.254.208.45.449.525.757zm9.334-8.376c.2.628-.133 1.557-4.07 3.228a74.958 74.958 0 0 1-10.22 3.334c-3.767.99-7.61 1.67-11.482 2.055l-1.625 3.452a.517.517 0 0 1-.583.289l-1.08-.173-.047-.012c-.252-.014-.447-.256-.438-.495l.06-4.131-2.395-3.49c-.158-.184-.078-.502.11-.648l.83-.661c.14-.158.403-.189.62-.038l3.261 2.067c2.462-1.074 5.034-1.976 7.62-2.73l-6.508-9.095c-.048-.012-.074-.115-.11-.173-.077-.308.135-.544.41-.62l2.732-.525a.472.472 0 0 1 .48.12l2.591 2.093 1.741-.434c.274-.077.622-.038.899.08.277.116.52.37.596.678l.036.057c.077.309.057.593-.07.899-.117.26-.377.485-.71.594l1.235.983 1.74-.434a1.165 1.165 0 0 1 1.02.207c.303.22.498.461.574.77l.037.057c.076.308.104.604-.023.91a1.153 1.153 0 0 1-.78.673l-.978.239a.578.578 0 0 1-.676-.361c-.087-.263.088-.557.362-.633l.978-.239c.06-.033.06-.033.07-.079.012-.045.035-.136.01-.239l-.037-.057c.011-.045-.074-.115-.11-.172l-.097-.024-2.015.51a.472.472 0 0 1-.48-.12l-2.31-1.781a.581.581 0 0 1-.184-.287c-.088-.263.087-.557.361-.633l.978-.238c.06-.034.06-.034.071-.08.011-.045.034-.135-.003-.193l-.037-.057c.012-.046-.036-.058-.036-.058-.048-.011-.096-.023-.156.01l-2.015.51a.472.472 0 0 1-.48-.12l-2.59-2.092-1.708.298 6.53 9.005c.038.057.026.103.063.16.088.263-.088.557-.362.633a55.6 55.6 0 0 0-8.394 2.97.72.72 0 0 1-.55-.041l-3.213-2.055-.19.146 2.249 3.26c.025.103.099.218.076.309l-.04 3.847.192.048 1.603-3.361a.523.523 0 0 1 .475-.268 63.69 63.69 0 0 0 11.53-2.043c8.727-2.26 13.348-4.627 13.588-5.387-.209-.39-2.85-1.048-12.126 1.364a.578.578 0 0 1-.675-.361c-.088-.263.088-.557.362-.633l1.37-.381c.108-.022.167-.055.263-.031 7.382-1.776 11.378-1.84 11.88-.172zM698.946 162.319a1.354 1.354 0 0 1-.301.803c-.197.247-.535.36-.869.374l-1.708-.06-.835 1.164c.312.025.66.175.839.433.219.28.334.553.323.855l.018.062s.019.062-.003.1a.972.972 0 0 1-1.14.938l-1.708-.06-1.719 2.506c-.067.116-.215.184-.382.19l-2.632.127a.366.366 0 0 1-.208-.017c-.267-.103-.423-.398-.33-.653l2.874-8.94a.506.506 0 0 1 .657-.289c.267.103.423.399.33.654l-2.58 8.336 1.63-.088 1.718-2.506a.463.463 0 0 1 .405-.229l1.978.062c.041.023.064-.015.127-.03l.022-.039-.019-.062c-.037-.124-.115-.272-.178-.257l-.958-.039c-.126.03-.248-.04-.33-.087-.223-.18-.275-.468-.1-.676l1.56-2.135c.066-.116.215-.184.382-.19l2 .023c.023-.039.064-.015.086-.054.022-.038.067-.116.048-.178l-.018-.062c.026-.14-.011-.264-.134-.334l-.958-.039a.55.55 0 0 1-.523-.508c-.011-.263.226-.486.497-.484l.958.038c.375.01.702.2.899.519.178.257.293.53.282.832zm10.743-5.219c.019.628-.53 1.391-4.573 1.887-3.371.369-6.816.49-10.231.37a70.511 70.511 0 0 1-11.051-1.133l-2.395 2.733a.492.492 0 0 1-.609.112l-.943-.442-.04-.023c-.227-.08-.342-.352-.272-.568l1.14-3.767-1.276-3.823c-.097-.21.06-.48.271-.564l.932-.388c.17-.108.42-.067.579.128l2.442 2.748c2.536-.337 5.127-.487 7.692-.498l-3.57-10.036c-.04-.023-.037-.124-.056-.186.012-.303.268-.463.539-.461l2.639.237a.45.45 0 0 1 .408.236l1.823 2.596 1.707.06c.271.002.58.128.802.308.223.18.379.476.368.778l.018.062a1.306 1.306 0 0 1-.3.804c-.175.208-.472.345-.806.358l.872 1.224 1.708.06c.375.01.66.176.88.456.218.281.333.553.322.856l.019.062c-.011.302-.063.58-.26.827a1.098 1.098 0 0 1-.891.412l-.958-.039a.55.55 0 0 1-.523-.508c-.011-.263.226-.486.497-.484l.958.038c.063-.015.063-.015.085-.053a.461.461 0 0 0 .07-.217l-.018-.062c.023-.038-.037-.124-.055-.186l-.082-.047-1.979-.062a.45.45 0 0 1-.408-.236l-1.648-2.238a.554.554 0 0 1-.093-.31c-.01-.264.227-.487.498-.485l.958.038c.063-.015.063-.015.085-.053.022-.039.067-.116.048-.178l-.018-.062c.022-.039-.019-.062-.019-.062-.04-.024-.081-.048-.145-.033l-1.978-.062a.45.45 0 0 1-.409-.235l-1.822-2.596-1.64-.175 3.614 9.958c.018.062-.004.1.015.163.01.264-.227.487-.498.484a52.952 52.952 0 0 0-8.464.516.686.686 0 0 1-.493-.182l-2.402-2.724-.212.083 1.203 3.575c-.004.101.033.225-.011.303l-1.048 3.51.164.095 2.35-2.656c.13-.13.32-.176.505-.12a60.656 60.656 0 0 0 11.092 1.156c8.582.222 13.434-.732 13.854-1.365-.09-.411-2.335-1.708-11.46-1.934a.55.55 0 0 1-.523-.508c-.011-.264.227-.487.498-.484l1.355.01c.104.009.167-.006.248.04 7.224.313 10.9 1.303 10.921 2.962zM41.62 327.551c.31.28.517.66.582 1.027.086.426-.093.882-.375 1.245l-1.572 1.746.487 1.909c.303-.306.77-.541 1.198-.501.49.017.878.137 1.186.416l.082.035s.082.035.103.093c.617.558.606 1.474-.02 2.028l-1.573 1.746 1.12 4.026c.063.172.004.39-.137.571l-2.192 2.885a.503.503 0 0 1-.202.203c-.345.191-.794.094-.98-.23l-6.876-10.928a.696.696 0 0 1 .276-.947c.345-.191.794-.094.98.23l6.5 10.086 1.348-1.794-1.12-4.026c-.084-.23-.025-.447.116-.629l1.814-2.03c.06-.021.04-.079.08-.159l-.021-.057-.082-.036c-.164-.07-.389-.12-.428-.04l-.887.975c-.08.16-.263.226-.385.27-.386.076-.735-.123-.8-.49l-.87-3.53c-.063-.173-.004-.39.136-.572l1.794-2.086c-.021-.058.04-.08.019-.138-.021-.057-.063-.173-.145-.208l-.082-.035c-.124-.15-.288-.222-.47-.155l-.887.975c-.242.283-.71.323-.998.102-.287-.221-.312-.669-.07-.952l.886-.975c.343-.386.83-.563 1.34-.488.429.04.817.16 1.126.438zm4-15.929c.678.536.996 1.79-2.055 6.485a98.16 98.16 0 0 1-8.653 11.104 96.953 96.953 0 0 1-10.96 10.639l.762 4.938c.044.31-.116.629-.42.74l-1.299.603-.06.022c-.284.168-.673.049-.839-.217l-2.959-4.53-5.156-2.034c-.307-.084-.453-.487-.354-.784l.414-1.325c.038-.274.301-.5.648-.496l5.053-.144c1.886-2.968 4.017-5.83 6.273-8.542l-13.726-5.11c-.06.022-.164-.07-.246-.106-.308-.279-.251-.69-.01-.974l2.584-2.57a.618.618 0 0 1 .609-.222l4.345.374 1.572-1.745c.242-.284.647-.497 1.034-.572.386-.076.835.022 1.144.3l.082.036c.308.279.495.602.58 1.027.065.368-.052.802-.334 1.165l2.06.163 1.572-1.746c.343-.385.77-.54 1.258-.523.49.018.878.137 1.187.416l.082.035c.308.28.556.58.641 1.006a1.51 1.51 0 0 1-.354 1.302l-.887.975c-.241.283-.71.323-.997.102-.288-.221-.313-.669-.07-.952l.886-.975c.04-.08.04-.08.02-.137-.022-.058-.064-.173-.166-.266l-.082-.035c-.021-.058-.164-.071-.246-.107l-.122.045-1.814 2.03a.618.618 0 0 1-.609.22l-3.813-.241a.761.761 0 0 1-.41-.177c-.287-.221-.312-.669-.07-.952l.887-.975c.04-.08.04-.08.019-.137-.021-.058-.063-.173-.145-.209l-.082-.035c-.021-.058-.082-.035-.082-.035-.06.022-.122.044-.162.124l-1.814 2.03a.618.618 0 0 1-.609.22l-4.345-.374-1.635 1.573 13.684 4.995c.082.035.103.093.185.128.288.221.312.669.07.952a72.808 72.808 0 0 0-6.937 9.371.943.943 0 0 1-.628.36l-4.992.12-.1.298 4.83 1.893c.102.093.266.164.308.28l2.773 4.206.243-.09-.72-4.822a.685.685 0 0 1 .32-.638 83.402 83.402 0 0 0 11.02-10.662c7.82-8.844 11.103-14.798 10.808-15.799-.512-.27-3.863.95-12.166 10.361-.241.284-.71.324-.997.102-.288-.22-.313-.668-.07-.952l1.208-1.418c.1-.102.14-.181.262-.226 6.714-7.333 11.005-10.329 12.772-8.886z" opacity=".95"/>
            <path fill="#FFF" d="M177.684 256.293c-1.6-.14-3.436.684-4.887 2.282-.574.613-.904 1.502-.857 2.31.13 1.954 2.04 3.732 2.276 3.923.386.389.894 1.108.847 1.455-.029.131-.151.186-.311.288-1.77.646-3.853 7.355-3.413 12.487.038.338.33.652.706.571.376-.08.65-.32.565-.697-.421-5.348 1.887-10.796 2.612-11.21.584-.144.998-.656 1.149-1.227.255-1.18-.997-2.424-1.194-2.661l-.047-.038c-.47-.381-1.779-1.748-1.835-3.026-.056-.508.19-1.003.49-1.375 1.187-1.273 2.609-1.97 3.813-1.919 1.045.153 1.967.746 2.456 1.681a4.428 4.428 0 0 1 .092 4.696c-.103.224-.386.38-.64.406-.885.13-1.365 1.205-1.3 2.182-.085.779.508 1.49 1.29 1.583l.169-.017c.047.038.047.038.131.03 1.78.208 3.492.979 4.866 2.168l1.835 1.486c.376.305.8.648 1.195.352 1.308-.173 3.906-.303 5.478.354l-12.822 5.252c.066-1.332.217-2.674.453-4.023.744.525 1.638.864 2.56 1.072.348.05.668-.152.8-.508.047-.347-.16-.668-.517-.804-1.054-.237-1.967-.745-2.814-1.431-.245-.275-.668-.233-.941.008-.076.093-.15.186-.18.317-.386 1.92-.64 3.87-.68 5.842l-13.782 5.477a.645.645 0 0 0-.198.918c.15.199.424.343.678.317l5.827-2.29c.085.377.207.707.291 1.083l.02.17c1.259 3.638 8.959 2.402 11.764 1.824.093 2.001 1.316 4.917 1.447 5.331.123.33.527.504.857.386.33-.119.499-.52.377-.85-.65-1.604-1.608-4.46-1.335-5.471.132-.356-.122-.715-.432-.813-.132-.03-.217-.02-.386-.004-3.718.84-10.166 1.395-10.975-.877l-.019-.169a3.69 3.69 0 0 1-.3-1.168l6.524-2.573c.865 1.625 3.858 1.199 6.052.895.508-.05 1.016-.1 1.393-.18.339-.035.687.016.97.245.394.474.582 1.011.61 1.65l.542 9.913-17.652 7.272c-.32.203-.452.558-.245.88.16.284.518.42.81.347l29.532-12.132.038-.046a5.134 5.134 0 0 0 1.487-1.26c.65-.707.924-1.718.689-2.678-.085-.377-.452-.597-.781-.478-.33.118-.594.444-.471.774.281 1.383-1.32 2.398-1.564 2.508l-10.525 4.34-.617-9.435a3.752 3.752 0 0 0-1.053-2.547c-.565-.458-1.233-.69-1.949-.577-.423.042-.931.093-1.477.19-1.563.198-3.963.565-4.594-.1l13.82-5.522c.123-.055.16-.102.236-.195l.075-.093.075-.093c.226-.279.189-.617-.056-.893-.912-.893-2.512-1.418-4.743-1.453-.904-.038-1.835.054-2.72.185l-1.93-1.562c-1.608-1.38-3.547-2.257-5.665-2.431l-.084.008-.047-.038c-.104-.16-.085-.376-.104-.546.02-.215.085-.393.236-.579.63-.105 1.186-.503 1.554-1.053a5.644 5.644 0 0 0-.158-6.058c-.62-1.35-1.957-2.2-3.387-2.358z" opacity=".6"/>
            <path fill="#FFF" d="M925.154 160.202c.237-1.34-.323-2.95-1.566-4.293-.475-.53-1.2-.875-1.886-.895-1.66-.034-3.302 1.448-3.48 1.632-.357.297-1.002.673-1.292.607-.108-.033-.146-.14-.22-.283-.414-1.542-5.924-3.796-10.29-3.804-.288.007-.574.23-.534.554.04.324.223.572.547.528 4.546.04 8.975 2.39 9.271 3.034.078.503.48.89.95 1.06.978.302 2.121-.662 2.336-.812l.035-.037c.357-.369 1.608-1.372 2.69-1.324.433-.01.833.233 1.125.515.987 1.095 1.47 2.347 1.338 3.36-.206.871-.775 1.606-1.6 1.95-1.29.679-2.807.57-3.971-.27-.182-.103-.293-.353-.296-.57-.045-.756-.916-1.241-1.746-1.258-.651-.13-1.295.318-1.432.97l.002.145c-.036.037-.036.037-.035.11a7.721 7.721 0 0 1-2.19 3.946l-1.39 1.44c-.285.295-.606.627-.385.983.05 1.117-.033 3.32-.703 4.598l-3.487-11.212c1.12.154 2.24.38 3.362.68-.498.588-.85 1.318-1.093 2.081-.069.29.079.576.369.714.29.065.576-.086.717-.378.278-.872.775-1.605 1.416-2.27.25-.186.246-.546.063-.795-.073-.07-.146-.14-.255-.174-1.593-.469-3.22-.828-4.882-1.006l-3.605-12.04a.547.547 0 0 0-.76-.235c-.18.112-.321.332-.318.548l1.503 5.09c-.325.043-.612.122-.936.165l-.145.004c-3.165.794-2.69 7.386-2.41 9.797-1.695-.069-4.247.748-4.607.828-.287.079-.464.408-.388.695.075.287.402.46.69.38 1.401-.429 3.883-1.027 4.717-.722.29.138.612-.05.718-.305a.9.9 0 0 0 .032-.325c-.435-3.202-.427-8.686 1.55-9.2l.145-.004c.323-.116.647-.16 1.008-.168l1.69 5.698c-1.435.61-1.297 3.17-1.202 5.043.005.433.01.866.05 1.19.003.288-.066.578-.28.8-.429.298-.896.418-1.438.394l-8.408-.275-4.836-15.44c-.148-.284-.438-.422-.725-.271a.639.639 0 0 0-.353.657l8.061 25.829.037.035c.222.5.552.962.953 1.35.549.6 1.382.905 2.21.778.324-.044.537-.337.462-.624-.076-.287-.331-.534-.619-.455-1.189.136-1.927-1.29-2.002-1.505l-2.886-9.206 8.01.175a3.18 3.18 0 0 0 2.229-.7c.427-.443.673-.99.63-1.603-.004-.36-.01-.793-.05-1.261-.053-1.334-.185-3.388.422-3.87l3.642 12.075a.453.453 0 0 0 .147.213l.073.07.073.07c.219.212.507.205.758.02.821-.705 1.383-2.017 1.577-3.898.1-.76.09-1.554.045-2.31l1.461-1.513c1.284-1.257 2.167-2.829 2.47-4.604v-.072l.036-.037c.143-.075.324-.043.468-.046.18.031.326.1.472.241.042.54.337 1.039.774 1.39a4.783 4.783 0 0 0 5.126.314c1.186-.424 2.003-1.49 2.241-2.686z" opacity=".97"/>
            <path fill="#FFF" d="M43.4 14.397c-.974-.788-2.52-1.056-4.154-.655-.638.146-1.239.576-1.56 1.119-.768 1.32-.309 3.302-.24 3.528.08.42.094 1.106-.087 1.31-.076.072-.179.054-.327.05-1.425-.354-5.697 3.075-7.65 6.584-.123.235-.071.564.207.677.279.112.56.075.67-.205 2.059-3.64 5.926-6.155 6.575-6.107.44.162.931.012 1.278-.292.679-.652.413-2.001.388-2.24l-.014-.046c-.138-.451-.387-1.905.134-2.755.185-.353.56-.566.916-.675 1.322-.306 2.545-.137 3.301.422.609.554.947 1.34.855 2.157a3.452 3.452 0 0 1-1.988 3.075c-.165.1-.415.078-.59-.016-.63-.302-1.409.183-1.792.844-.395.466-.322 1.184.143 1.585l.117.063c.013.045.013.045.072.076a7.103 7.103 0 0 1 2.2 3.523l.537 1.76c.11.361.235.768.62.749.92.458 2.657 1.507 3.386 2.617L35.82 29.35a25.61 25.61 0 0 1 2.047-2.403c.252.663.682 1.272 1.188 1.808.203.185.498.194.738.021.182-.203.188-.501.016-.745-.577-.613-.946-1.34-1.194-2.152-.038-.284-.33-.442-.612-.405a.586.586 0 0 0-.254.127c-1.087 1.073-2.103 2.222-2.987 3.48l-11.296-2.47a.503.503 0 0 0-.528.508c.01.194.124.406.3.5L28 28.68c-.11.28-.174.548-.284.828l-.061.117c-.772 2.902 4.743 5.46 6.809 6.31-.812 1.333-1.293 3.75-1.39 4.076a.536.536 0 0 0 .386.622c.265.068.55-.118.615-.385.28-1.32.905-3.583 1.522-4.118.24-.172.233-.515.075-.713-.072-.077-.13-.109-.248-.172-2.77-1.078-7.179-3.53-6.711-5.35l.062-.118c.05-.312.16-.592.314-.886l5.34 1.18c-.15 1.428 1.97 2.458 3.52 3.218.351.189.702.378.98.49.234.126.437.31.52.582.048.478-.064.908-.325 1.333l-3.971 6.643-14.58-2.995c-.296-.008-.536.164-.543.462a.588.588 0 0 0 .372.577l24.378 5.034.045-.014a4.002 4.002 0 0 0 1.51-.165 2.293 2.293 0 0 0 1.613-1.431c.11-.28-.032-.583-.296-.65-.265-.067-.577.028-.642.295-.421 1.017-1.898.975-2.104.94l-8.695-1.784 3.714-6.367a2.925 2.925 0 0 0 .43-2.106c-.166-.542-.496-.984-1.008-1.222a14.77 14.77 0 0 0-1.038-.522c-1.096-.553-2.808-1.362-2.926-2.066l11.341 2.455c.103.018.148.004.237-.023l.09-.027.089-.028c.267-.082.39-.317.353-.601-.201-.975-1.006-2.012-2.433-3.008-.567-.418-1.21-.765-1.839-1.066l-.565-1.85c-.439-1.594-1.31-3.006-2.602-4.042l-.059-.031-.014-.046c.004-.149.11-.28.171-.397a.782.782 0 0 1 .405-.272c.454.207.986.192 1.464-.003a4.4 4.4 0 0 0 2.54-3.985c.186-1.143-.306-2.276-1.162-3.001z" opacity=".98"/>
            <path fill="#FFF" d="M519.94 234.567c-.229-.207-.348-.287-.426-.31-.108.104-.236.338-.33.523-.29.516-.639 1.169-1.347 1.463-.109.103-.306.18-.511.217a2.49 2.49 0 0 1-1.472-.205c-1.656-.765-2.484-3.068-2.646-3.505-.275-.838-.4-1.788-.525-2.737-.24-1.605-.448-3.258-1.443-4.35-.214-.258-.585-.446-.923-.682-.563-.323-1.176-.68-1.21-1.35-.023-.376.213-.713.497-1.017-.404-.14-.836-.19-1.267-.241-1.205-.125-2.67-.29-2.978-2.516a.57.57 0 0 1-.005-.028 17.354 17.354 0 0 0-5.692.06c-.648.115-1.282.264-1.9.445.354.354.632.787.875 1.173.23.34.458.68.665.896.097.068.33.195.516.29.412.18.92.428 1.123.857.25.463.144.82.05 1.005-.282.557-.937.672-1.395.711l-.082.014c-1.523.227-2 .395-2.706 1.66-.605 1.12-1.256 2.46-1.114 3.745.043.246-.085.48-.316.605-.19.118-.484.128-.677-.007-.571-.364-1.338-.398-1.998-.07-.62.32-.99.85-1.046 1.493-.034.767.096.786.952.846.691.09 1.636.177 2.103 1.15.14.313.203.43.251.463.123-.022.477-.169.716-.253 1.029-.393 2.01-.82 3.256-.7.513.035.992.12 1.48.245.479.085.965.21 1.43.212.254-.002.507-.004.8-.014.711-.04 1.504-.096 2.254.32.378.23.715.466.97.717.345.277.649.561 1.054.701l.802.239c.617.145 1.234.29 1.764.66.53.372.877.902 1 1.598.234 1.564-.774 3.516-1.47 4.357-.21.248-.468.463-.644.663-.366.318-.583.525-.615.826l-.02.13c-.03 1.02-.098 1.834-.985 2.793-.318.352-.774.643-1.188.928-.456.291-.945.63-1.14.961-.195.33.183 1.277.366 1.836.084.239.168.478.246.675a.542.542 0 0 1-.111.569c.115-.063-.034.048-.157.07-.041.007-.123.021-.171-.012-2.875-.254-3.207-2.856-3.5-5.001-.133-.99-.259-1.94-.586-2.6-.313-.579-.788-.875-1.31-1.206-.524-.33-1.095-.694-1.497-1.299-.506-.713-.692-1.525-.836-2.345-.087-.491-.166-.942-.361-1.33-.287-.667-.644-.773-1.35-.945a11.107 11.107 0 0 1-1.07-.318 9.868 9.868 0 0 1-1.395-.725c-.282-.162-.571-.364-.887-.478-.508-.248-.81-.28-1.364-.308-.13-.02-.253.002-.383-.017-1.67-.128-2.277-1.415-2.792-2.423a15.674 15.674 0 0 1-1.005-2.459 17.321 17.321 0 0 0-.741 8.85c1.669 9.464 10.729 15.808 20.192 14.139 9.284-1.637 15.566-10.387 14.226-19.654zm-.296-1.556c-1.555-6.536-6.69-11.42-12.921-12.912.233.822.754.865 1.766.98.822.108 1.807.188 2.655.926.152.142.23.34.217.51-.012.172-.099.398-.29.516-.38.236-.556.436-.664.54.144.101.337.236.523.33.419.222.894.518 1.26.919 1.217 1.39 1.5 3.24 1.737 5.058.118.908.228 1.776.481 2.492.36 1.077 1.096 2.383 1.961 2.738.364.147.707.17 1.054-.017.272-.133.5-.51.689-.882.29-.516.564-1.113 1.227-1.188.103-.018.205-.02.305-.01zm-32.534-3.757c.151 1.185.539 2.383 1.289 3.9.537 1.13.877 1.62 1.74 1.721.13.02.253-.002.342.024.602.063 1.115.1 1.85.434.323.154.653.35.943.552.426.263.804.492 1.21.632.274.12.582.193.89.265.796.198 1.721.415 2.247 1.716.216.511.31 1.044.404 1.576.123.697.28 1.345.62 1.834.284.415.71.677 1.137.94.619.398 1.327.822 1.78 1.714.446.85.6 1.964.747 3.036.214 1.694.472 2.916 1.25 3.497-.26-.757-.453-1.61-.103-2.263.35-.653.954-1.055 1.566-1.417.381-.236.72-.465.93-.713.57-.607.613-1.08.618-2.01l.02-.13c.06-.855.609-1.332 1.05-1.706.183-.159.366-.318.509-.47.588-.737 1.359-2.351 1.178-3.375-.057-.328-.183-.56-.424-.728-.378-.23-.865-.355-1.392-.473-.309-.072-.617-.144-.933-.258-.631-.226-1.08-.612-1.472-.923-.248-.21-.497-.42-.779-.58-.419-.223-.959-.17-1.547-.15-.335.016-.629.026-.964.043-.554-.03-1.123-.14-1.602-.225-.48-.084-.918-.176-1.35-.226-.944-.087-1.768.27-2.716.648-1.144.455-1.908.674-2.6-.851-.132-.273-.44-.345-1.043-.408-.774-.075-2.239-.239-2.08-2.21.066-1.067.74-2.031 1.755-2.506.735-.383 1.528-.438 2.275-.274.111-1.287.71-2.449 1.247-3.473.92-1.725 1.793-2.048 3.603-2.325l.082-.014.204-.036a1.264 1.264 0 0 0-.322-.154c-.323-.155-.64-.268-.853-.526-.311-.325-.596-.74-.832-1.12-.52-.796-.908-1.319-1.414-1.314a.564.564 0 0 1-.092-.003 17.47 17.47 0 0 0-8.968 8.33zm18.83 26.237c-10.16 1.791-19.895-5.025-21.687-15.185-1.791-10.16 5.025-19.895 15.185-21.686 10.16-1.792 19.895 5.025 21.686 15.185 1.792 10.16-5.025 19.894-15.185 21.686z" opacity=".6"/>
            <path fill="#FFF" d="M647.335 78.354c-.146-.188-.225-.264-.281-.292-.096.064-.224.224-.32.352-.288.352-.64.8-1.216.928-.096.064-.256.096-.416.096-.384 0-.768-.128-1.088-.352-1.152-.8-1.472-2.656-1.536-3.008-.096-.672-.064-1.408-.032-2.144.032-1.248.096-2.528-.512-3.488-.128-.224-.384-.416-.608-.64-.384-.32-.8-.672-.736-1.184.032-.288.256-.512.512-.704-.288-.16-.608-.256-.928-.352-.896-.256-1.984-.576-1.92-2.304v-.022a13.35 13.35 0 0 0-4.32-.714c-.506 0-1.006.028-1.498.083.22.315.373.68.506 1.005.128.288.256.576.384.768.064.064.224.192.352.288.288.192.64.448.736.8.128.384 0 .64-.096.768-.288.384-.8.384-1.152.352h-.064c-1.184-.032-1.568.032-2.272.896-.608.768-1.28 1.696-1.344 2.688a.442.442 0 0 1-.32.416.501.501 0 0 1-.512-.096c-.384-.352-.96-.48-1.504-.32-.512.16-.864.512-.992.992-.128.576-.032.608.608.768.512.16 1.216.352 1.44 1.152.064.256.096.352.128.384.096 0 .384-.064.576-.096.832-.16 1.632-.352 2.56-.096.384.096.736.224 1.088.384.352.128.704.288 1.056.352.192.032.384.064.608.096.544.064 1.152.128 1.664.544.256.224.48.448.64.672.224.256.416.512.704.672l.576.288c.448.192.896.384 1.248.736s.544.8.544 1.344c-.032 1.216-1.056 2.56-1.696 3.104-.192.16-.416.288-.576.416-.32.192-.512.32-.576.544l-.032.096c-.16.768-.32 1.376-1.12 1.984-.288.224-.672.384-1.024.544-.384.16-.8.352-.992.576-.192.224-.032.992.032 1.44.032.192.064.384.096.544a.417.417 0 0 1-.16.416c.096-.032-.032.032-.128.032-.032 0-.096 0-.128-.032-2.144-.576-2.048-2.592-1.984-4.256.032-.768.064-1.504-.096-2.048-.16-.48-.48-.768-.832-1.088-.352-.32-.736-.672-.96-1.184-.288-.608-.32-1.248-.32-1.888 0-.384 0-.736-.096-1.056-.128-.544-.384-.672-.896-.896a8.544 8.544 0 0 1-.768-.384 7.59 7.59 0 0 1-.96-.736c-.192-.16-.384-.352-.608-.48-.352-.256-.576-.32-.992-.416-.096-.032-.192-.032-.288-.064-1.248-.32-1.536-1.376-1.792-2.208a12.057 12.057 0 0 1-.433-1.997 13.324 13.324 0 0 0-1.743 6.605c0 7.392 6.016 13.408 13.408 13.408 7.252 0 13.179-5.79 13.401-12.988zm-.017-1.219c-.304-5.16-3.541-9.545-8.063-11.508.067.655.455.756 1.207.979.608.192 1.344.384 1.888 1.056a.51.51 0 0 1 .096.416.519.519 0 0 1-.288.352c-.32.128-.48.256-.576.32.096.096.224.224.352.32.288.224.608.512.832.864.736 1.216.704 2.656.64 4.064-.032.704-.064 1.376.032 1.952.128.864.512 1.952 1.12 2.336.256.16.512.224.8.128.224-.064.448-.32.64-.576.288-.352.576-.768 1.088-.736.08 0 .158.012.232.033zm-24.144-7.192c-.043.918.09 1.877.456 3.127.256.928.448 1.344 1.088 1.536.096.032.192.032.256.064.448.128.832.224 1.344.576.224.16.448.352.64.544.288.256.544.48.832.64.192.128.416.224.64.32.576.256 1.248.544 1.472 1.6.096.416.096.832.096 1.248 0 .544.032 1.056.224 1.472.16.352.448.608.736.864.416.384.896.8 1.12 1.536.224.704.192 1.568.16 2.4-.064 1.312-.032 2.272.48 2.816-.096-.608-.128-1.28.224-1.728.352-.448.864-.672 1.376-.864.32-.128.608-.256.8-.416.512-.384.608-.736.736-1.44l.032-.096c.16-.64.64-.928 1.024-1.152.16-.096.32-.192.448-.288.544-.48 1.344-1.6 1.344-2.4 0-.256-.064-.448-.224-.608-.256-.224-.608-.384-.992-.544-.224-.096-.448-.192-.672-.32-.448-.256-.736-.608-.992-.896a4.121 4.121 0 0 0-.512-.544c-.288-.224-.704-.256-1.152-.32-.256-.032-.48-.064-.736-.096-.416-.096-.832-.256-1.184-.384s-.672-.256-.992-.352c-.704-.192-1.376-.032-2.144.128-.928.192-1.536.256-1.856-.992-.064-.224-.288-.32-.736-.448-.576-.16-1.664-.48-1.28-1.952.192-.8.832-1.44 1.664-1.664.608-.192 1.216-.128 1.76.096.256-.96.864-1.76 1.408-2.464.928-1.184 1.632-1.312 3.04-1.28h.224a.972.972 0 0 0-.224-.16c-.224-.16-.448-.288-.576-.512a5.38 5.38 0 0 1-.48-.96c-.288-.672-.512-1.12-.896-1.184a.434.434 0 0 1-.07-.014 13.439 13.439 0 0 0-7.906 5.111zm10.76 22.39c-7.936 0-14.4-6.463-14.4-14.4 0-7.935 6.464-14.4 14.4-14.4s14.4 6.465 14.4 14.4c0 7.937-6.464 14.4-14.4 14.4z"/>
            <path fill="#FFF" d="M101.002 74.371c-.153-.197-.237-.277-.295-.306-.101.067-.236.235-.336.37-.303.37-.672.84-1.277.974-.101.067-.269.1-.437.1-.403 0-.806-.134-1.142-.369-1.21-.84-1.546-2.789-1.613-3.158-.101-.706-.067-1.479-.034-2.251.034-1.31.101-2.655-.537-3.663-.135-.235-.404-.437-.639-.672-.403-.336-.84-.705-.773-1.243.034-.302.27-.538.538-.74-.302-.167-.638-.268-.974-.369-.941-.269-2.084-.605-2.016-2.419a.46.46 0 0 1 0-.023 14.017 14.017 0 0 0-4.536-.75c-.532 0-1.057.03-1.574.088.232.33.393.714.532 1.055.134.302.269.604.403.806.067.067.235.202.37.302.302.202.672.47.773.84.134.404 0 .672-.101.807-.303.403-.84.403-1.21.37h-.067c-1.243-.034-1.646.033-2.386.94-.638.807-1.344 1.781-1.41 2.823 0 .201-.135.37-.337.436a.526.526 0 0 1-.537-.1c-.404-.37-1.008-.504-1.58-.336-.537.168-.907.537-1.041 1.041-.135.605-.034.639.638.807.538.168 1.277.37 1.512 1.21.067.268.101.369.135.402.1 0 .403-.067.604-.1.874-.168 1.714-.37 2.688-.101.404.1.773.235 1.143.403.37.134.739.302 1.109.37.201.033.403.067.638.1.571.068 1.21.135 1.747.572.269.235.504.47.672.705.235.269.437.538.74.706l.604.302c.47.202.941.403 1.31.773.37.37.572.84.572 1.411-.034 1.277-1.109 2.688-1.781 3.26-.202.167-.437.302-.605.436-.336.202-.537.336-.605.571l-.033.101c-.168.807-.336 1.445-1.176 2.083-.303.236-.706.404-1.075.572-.404.168-.84.37-1.042.604-.202.236-.034 1.042.034 1.512.033.202.067.404.1.572a.437.437 0 0 1-.168.436c.101-.033-.033.034-.134.034-.034 0-.1 0-.134-.034-2.252-.604-2.15-2.721-2.084-4.468.034-.807.068-1.58-.1-2.15-.168-.505-.504-.807-.874-1.143-.37-.336-.773-.706-1.008-1.243-.302-.639-.336-1.31-.336-1.983 0-.403 0-.773-.1-1.109-.135-.57-.404-.705-.942-.94a8.97 8.97 0 0 1-.806-.404 7.97 7.97 0 0 1-1.008-.772c-.202-.168-.403-.37-.638-.504-.37-.27-.605-.336-1.042-.437-.1-.034-.202-.034-.302-.067-1.31-.336-1.613-1.445-1.882-2.319-.18-.599-.36-1.317-.455-2.097a13.99 13.99 0 0 0-1.83 6.936c0 7.761 6.317 14.078 14.079 14.078 7.614 0 13.838-6.08 14.071-13.638zm-.018-1.28c-.32-5.417-3.719-10.021-8.467-12.082.071.687.479.793 1.268 1.027.638.202 1.411.403 1.982 1.109.101.134.135.302.101.437a.545.545 0 0 1-.302.37c-.336.134-.504.268-.605.335.1.101.235.236.37.336.302.236.638.538.873.908.773 1.276.74 2.788.672 4.267-.033.739-.067 1.445.034 2.05.134.907.537 2.049 1.176 2.452.269.168.537.235.84.135.235-.068.47-.336.672-.605.302-.37.605-.807 1.142-.773a.88.88 0 0 1 .244.035zm-25.351-7.55c-.046.963.094 1.97.478 3.282.27.975.47 1.412 1.143 1.613.1.034.201.034.269.067.47.135.873.236 1.41.605.236.168.471.37.673.571.302.27.571.504.873.672.202.135.437.236.672.336.605.27 1.31.572 1.546 1.68.1.437.1.874.1 1.31 0 .572.034 1.11.236 1.546.168.37.47.639.773.908.437.403.94.84 1.176 1.612.235.74.201 1.647.168 2.52-.067 1.378-.034 2.386.504 2.957-.101-.638-.135-1.344.235-1.814s.907-.706 1.445-.907c.336-.135.638-.27.84-.437.537-.403.638-.773.773-1.512l.033-.101c.168-.672.672-.974 1.075-1.21.168-.1.336-.201.47-.302.572-.504 1.412-1.68 1.412-2.52 0-.269-.067-.47-.235-.638-.269-.236-.639-.404-1.042-.572-.235-.1-.47-.201-.705-.336-.47-.268-.773-.638-1.042-.94a4.327 4.327 0 0 0-.538-.572c-.302-.235-.739-.268-1.21-.336-.268-.033-.503-.067-.772-.1-.437-.101-.874-.27-1.243-.404-.37-.134-.706-.268-1.042-.37-.739-.2-1.445-.033-2.251.135-.974.202-1.613.269-1.949-1.041-.067-.236-.302-.336-.773-.47-.604-.169-1.747-.505-1.344-2.05.202-.84.874-1.512 1.748-1.748.638-.201 1.276-.134 1.848.101.268-1.008.907-1.848 1.478-2.587.974-1.243 1.714-1.378 3.192-1.344H86.292a1.021 1.021 0 0 0-.235-.168c-.235-.168-.47-.302-.605-.538a5.649 5.649 0 0 1-.504-1.008c-.302-.705-.537-1.176-.94-1.243a.456.456 0 0 1-.073-.015 14.11 14.11 0 0 0-8.302 5.367zM86.93 89.05c-8.333 0-15.12-6.788-15.12-15.12 0-8.333 6.787-15.12 15.12-15.12 8.332 0 15.12 6.787 15.12 15.12 0 8.332-6.788 15.12-15.12 15.12z" opacity=".72"/>
            <path fill="#FFF" d="M797.211 75.922l-1.901-.982a.553.553 0 0 0-.705.247.53.53 0 0 0 .187.71l1.897.985c.308.157.537.43.639.76L801.45 91.6a.1.1 0 0 1-.06.106l-6.377 2.007 1.292-12.976a2.488 2.488 0 0 0-.569-1.843l-4.555-5.429c-.852-1.005-2.376-1.12-3.414-.256l-5.56 4.665a2.615 2.615 0 0 0-.92 1.727l-1.572 15.74a1.18 1.18 0 0 0 1.09 1.3l12.578.975c.669.05 1.265-.45 1.332-1.118l.16-1.604 6.78-2.13c.62-.195.975-.848.796-1.46l-4.123-13.958a2.322 2.322 0 0 0-1.117-1.424zm-3.532 20.464a.116.116 0 0 1-.041.1.116.116 0 0 1-.106.023l-12.65-.935a.131.131 0 0 1-.12-.143l1.571-15.74c.037-.383.226-.74.525-.99l5.56-4.666c.578-.485 1.431-.421 1.905.143l4.552 5.425c.247.292.364.674.324 1.059l-1.374 13.762-.146 1.962zm-3.115-15.325c1.157-.971 1.327-2.673.38-3.802-.947-1.13-2.653-1.257-3.81-.287-1.157.971-1.327 2.673-.38 3.802.948 1.13 2.653 1.257 3.81.287zm-2.716-3.238c.694-.583 1.717-.506 2.285.172.569.677.467 1.698-.227 2.28-.694.583-1.718.506-2.286-.171-.565-.678-.462-1.696.23-2.277l-.002-.004zM277.257 31.78l.875-2.243a.622.622 0 0 0-.359-.76.596.596 0 0 0-.772.293l-.88 2.24c-.14.362-.418.65-.775.803l-15.131 6.253a.112.112 0 0 1-.127-.055l-2.995-6.899 14.67-.08a2.799 2.799 0 0 0 1.995-.853l5.539-5.735c1.025-1.071.974-2.79-.115-3.85l-5.873-5.671a2.941 2.941 0 0 0-2.04-.827l-17.795.092a1.328 1.328 0 0 0-1.327 1.373l.388 14.187a1.409 1.409 0 0 0 1.407 1.36l1.814-.01 3.18 7.336c.291.67 1.064.99 1.728.717l15.13-6.254a2.612 2.612 0 0 0 1.463-1.417zm-23.311-1.546a.13.13 0 0 1-.117-.034.13.13 0 0 1-.038-.115l-.441-14.264a.148.148 0 0 1 .146-.151l17.794-.093c.434-.004.856.166 1.17.471l5.874 5.672c.611.59.64 1.552.064 2.148l-5.534 5.73c-.298.312-.71.488-1.147.488l-15.56.08-2.211.068zm16.78-5.286c1.223 1.18 3.147 1.17 4.299-.023 1.151-1.192 1.094-3.116-.128-4.296-1.222-1.18-3.147-1.17-4.298.022-1.152 1.193-1.095 3.116.127 4.297zm3.303-3.42c.734.707.768 1.862.077 2.577-.69.716-1.846.722-2.579.013-.733-.708-.767-1.862-.076-2.577.691-.712 1.843-.716 2.574-.01l.004-.004zM233.697 140.701l-.7-1.675a.469.469 0 0 0-.593-.224.45.45 0 0 0-.266.564l.696 1.675c.114.27.114.572 0 .842l-4.932 11.32a.084.084 0 0 1-.098.036l-5.239-2.174 7.916-7.729c.408-.4.637-.943.636-1.507v-6.013c-.005-1.118-.933-2.024-2.079-2.029h-6.157c-.577.001-1.131.224-1.54.62l-9.606 9.373a1.001 1.001 0 0 0 0 1.44l7.643 7.493a1.062 1.062 0 0 0 1.475 0l.98-.955 5.567 2.314c.51.21 1.096-.02 1.314-.516l4.932-11.32a1.97 1.97 0 0 0 .051-1.535zm-13.456 11.374a.098.098 0 0 1-.082.042.098.098 0 0 1-.08-.042l-7.713-7.507a.111.111 0 0 1 0-.159l9.605-9.372c.234-.23.551-.358.882-.358h6.158c.64 0 1.16.507 1.16 1.132v6.009c.001.324-.13.636-.367.864l-8.399 8.196-1.164 1.195zm6.333-11.659c1.282 0 2.32-1.014 2.32-2.264 0-1.25-1.038-2.264-2.32-2.264-1.28 0-2.32 1.014-2.32 2.264 0 1.25 1.04 2.264 2.32 2.264zm0-3.586c.77 0 1.392.608 1.392 1.358 0 .75-.623 1.359-1.392 1.359-.768 0-1.392-.608-1.392-1.359.003-.748.625-1.353 1.392-1.353v-.005z" opacity=".92"/>
        </g>
    </g>
</svg>
