<svg xmlns="http://www.w3.org/2000/svg" width="17" height="15" viewBox="0 0 17 15">
    <path fill="#31CFDA" fill-rule="nonzero" d="M12.933 5.724V1.908c0-.617-.039-.655-.636-.655H1.908a.609.609 0 0 0-.617.617v11.275c0 .52.077.597.598.597h10.35c.347 0 .636.27.636.617s-.29.636-.636.636H1.812c-.945 0-1.58-.443-1.754-1.233-.039-.193-.039-.386-.039-.579C.02 8.808.04 6.341 0 1.966 0 1.29.154.752.578.386.868.115 1.272 0 1.658 0h10.928c.405 0 .79.135 1.099.405.424.385.558.944.558 1.619-.038 2.024-.019 1.734-.019 3.681a.65.65 0 0 1-.655.655.642.642 0 0 1-.636-.636zm3.874 9.06a.733.733 0 0 1-1.04 0 291.99 291.99 0 0 1-2.468-2.487c-.636.096-1.156.27-1.657.25-1.446-.038-2.602-1.233-2.66-2.717-.058-1.446 1.06-2.68 2.582-2.853 1.33-.154 2.66.848 2.95 2.236a2.633 2.633 0 0 1-.193 1.677c-.097.193-.058.289.077.443.81.79 1.6 1.6 2.409 2.39.289.308.289.771 0 1.06zm-5.05-3.374c.945 0 1.658-.694 1.677-1.619 0-.925-.713-1.657-1.619-1.657-.925 0-1.658.713-1.677 1.619-.02.925.675 1.657 1.62 1.657zM6.596 4.992v1.253h-3.86V4.992h3.86zm0 4.818v1.253h-3.86V9.81h3.86zm4.818-4.818v1.253H7.555V4.992h3.86zm-8.677-1.06V2.679h3.859v1.253h-3.86zm0 4.818V7.498h3.859V8.75h-3.86zm4.818-4.818V2.679h3.86v1.253h-3.86z"/>
</svg>
